<svg width="1200" height="900" viewBox="0 0 1200 900" fill="none" xmlns="http://www.w3.org/2000/svg">
  <defs>
    <linearGradient id="bg" x1="80" y1="120" x2="1120" y2="860" gradientUnits="userSpaceOnUse">
      <stop stop-color="#2563EB" stop-opacity="0.18"/>
      <stop offset="0.45" stop-color="#0EA5E9" stop-opacity="0.16"/>
      <stop offset="1" stop-color="#000000" stop-opacity="0"/>
    </linearGradient>
    <radialGradient id="spot" cx="0" cy="0" r="1" gradientUnits="userSpaceOnUse" gradientTransform="translate(860 240) rotate(110) scale(560 740)">
      <stop stop-color="#FFFFFF" stop-opacity="0.75"/>
      <stop offset="1" stop-color="#FFFFFF" stop-opacity="0"/>
    </radialGradient>
    <filter id="soft" x="-10%" y="-10%" width="120%" height="120%">
      <feGaussianBlur stdDeviation="2"/>
    </filter>
  </defs>

  <rect width="1200" height="900" fill="url(#bg)"/>
  <rect width="1200" height="900" fill="url(#spot)"/>

  <!-- Floor lines -->
  <g opacity="0.22">
    <path d="M60 710H1140" stroke="#0F172A" stroke-width="2"/>
    <path d="M110 770H1090" stroke="#0F172A" stroke-width="2"/>
    <path d="M160 830H1040" stroke="#0F172A" stroke-width="2"/>
  </g>

  <!-- Kendo silhouette (minimal line art) -->
  <g transform="translate(370 150)" filter="url(#soft)">
    <path d="M280 90c-62 0-112 50-112 112s50 112 112 112 112-50 112-112S342 90 280 90Z" fill="#0F172A" fill-opacity="0.08"/>
  </g>

  <g transform="translate(360 130)">
    <!-- Men (helmet) -->
    <path d="M290 105c-70 0-126 56-126 126 0 42 20 79 52 103 13 10 21 25 21 42v26c0 14 11 25 25 25h56c14 0 25-11 25-25v-26c0-17 8-32 21-42 32-24 52-61 52-103 0-70-56-126-126-126Z" fill="#0F172A" fill-opacity="0.10"/>
    <path d="M192 237h196" stroke="#0F172A" stroke-opacity="0.35" stroke-width="10" stroke-linecap="round"/>
    <path d="M206 205h168" stroke="#0F172A" stroke-opacity="0.35" stroke-width="10" stroke-linecap="round"/>
    <path d="M220 173h140" stroke="#0F172A" stroke-opacity="0.35" stroke-width="10" stroke-linecap="round"/>

    <!-- Body (Do / Hakama) -->
    <path d="M230 430c-10-52-18-76-60-114 16-10 30-24 41-40 22 12 49 19 79 19s57-7 79-19c11 16 25 30 41 40-42 38-50 62-60 114l-16 86c-3 18-19 31-37 31h-54c-18 0-34-13-37-31l-16-86Z" fill="#0F172A" fill-opacity="0.12"/>
    <path d="M210 550c34 34 77 52 130 52s96-18 130-52" stroke="#0F172A" stroke-opacity="0.30" stroke-width="10" stroke-linecap="round"/>

    <!-- Shinai -->
    <path d="M120 590L470 330" stroke="#0F172A" stroke-opacity="0.35" stroke-width="8" stroke-linecap="round"/>
    <path d="M108 604L150 572" stroke="#EF4444" stroke-opacity="0.55" stroke-width="10" stroke-linecap="round"/>

    <!-- Callout stamp -->
    <g transform="translate(380 610)">
      <rect x="0" y="0" width="260" height="120" rx="22" fill="#FFFFFF" fill-opacity="0.65" stroke="#0F172A" stroke-opacity="0.12"/>
      <path d="M34 42h192" stroke="#EF4444" stroke-width="6" stroke-linecap="round" opacity="0.7"/>
      <text x="34" y="78" font-family="ui-sans-serif, system-ui" font-size="20" fill="#0F172A" fill-opacity="0.85">
        稽古は、誠実に。
      </text>
    </g>
  </g>
</svg>


