<svg width="420" height="420" viewBox="0 0 420 420" xmlns="http://www.w3.org/2000/svg">
  <defs>
    <filter id="soft">
      <feGaussianBlur stdDeviation="0.4"/>
    </filter>
  </defs>
  <rect width="420" height="420" fill="none"/>
  <g opacity="0.55" filter="url(#soft)" stroke-linecap="round" stroke-linejoin="round">
    <path d="M46 70c18-10 32-10 50 0" stroke="#111827" stroke-opacity="0.14" stroke-width="6"/>
    <path d="M58 96c10-6 18-6 28 0" stroke="#111827" stroke-opacity="0.10" stroke-width="6"/>

    <path d="M310 72c14 0 26 12 26 26s-12 26-26 26-26-12-26-26 12-26 26-26Z" fill="none" stroke="#111827" stroke-opacity="0.10" stroke-width="6"/>
    <path d="M298 92c6-6 18-6 24 0" stroke="#111827" stroke-opacity="0.10" stroke-width="6"/>

    <path d="M74 270c18-18 44-18 62 0s18 44 0 62-44 18-62 0-18-44 0-62Z" fill="none" stroke="#111827" stroke-opacity="0.08" stroke-width="6"/>
    <path d="M86 302h38" stroke="#111827" stroke-opacity="0.08" stroke-width="6"/>

    <path d="M270 290c20-22 50-22 70 0" stroke="#111827" stroke-opacity="0.10" stroke-width="6"/>
    <path d="M270 314c20-22 50-22 70 0" stroke="#111827" stroke-opacity="0.08" stroke-width="6"/>

    <path d="M176 150c14-18 34-18 48 0" stroke="#111827" stroke-opacity="0.10" stroke-width="6"/>
    <path d="M170 170c24 12 40 12 60 0" stroke="#111827" stroke-opacity="0.10" stroke-width="6"/>

    <path d="M350 190c10-10 24-10 34 0s10 24 0 34-24 10-34 0-10-24 0-34Z" fill="none" stroke="#111827" stroke-opacity="0.10" stroke-width="6"/>
  </g>
</svg>


